<svg width="120" height="120" viewBox="0 0 120 120" fill="none" xmlns="http://www.w3.org/2000/svg">
<path d="M59.8915 116.333C91.3719 116.333 116.894 90.8109 116.894 59.3306C116.894 27.8502 91.3719 2.33362 59.8915 2.33362C28.4111 2.33362 2.89453 27.8502 2.89453 59.3306C2.89453 90.8109 28.4111 116.333 59.8915 116.333Z" fill="#FFD100"/>
<path d="M29.0358 65.7441C27.9457 66.6067 26.5381 67.1041 25.1781 67.1041C22.4529 67.1041 20.6855 65.2414 20.6855 62.3839C20.6855 59.4311 22.4106 57.5737 25.1781 57.5737C26.5857 57.5737 28.1732 58.1664 29.0358 58.9337V65.7441ZM41.4289 73.687L41.249 66.7866C40.5241 67.1041 39.8414 67.3316 39.0688 67.3316C37.9788 67.3316 37.7512 66.4214 37.7512 65.3314V50.4458H29.0358V52.5783C27.5806 51.0332 25.4956 50.0383 22.6328 50.0383C16.2298 50.0383 11.8271 55.166 11.8271 62.3839C11.8271 69.5118 16.2298 74.5971 22.6328 74.5971C25.7179 74.5971 28.1732 73.1472 29.6708 71.2845C30.581 73.6923 32.5759 74.6448 35.4387 74.6448C37.8888 74.6395 40.1166 74.1844 41.4289 73.687Z" fill="white"/>
<path d="M46.7734 74.1844H55.4889V62.0611C55.6265 59.9709 56.5313 58.0236 59.0767 58.0236C61.4368 58.0236 63.6169 58.8385 63.7069 58.9761L64.7494 50.9856C64.7017 50.848 62.7491 50.0331 60.5266 50.0331C57.6214 50.0331 56.0339 51.4407 54.9438 53.5732C54.0337 51.0332 51.9911 50.0331 49.1335 50.0331C45.9585 50.0331 43.1857 50.8956 43.0957 50.9856L43.3232 57.8383C43.4132 57.7907 44.5933 57.3409 45.5458 57.3409C46.5882 57.3409 46.7734 58.2035 46.7734 59.3412V74.1844Z" fill="white"/>
<path d="M67.2627 41.9526V67.4692C67.2627 72.7821 69.7604 74.6448 73.708 74.6448C76.2956 74.6448 78.6557 74.0521 79.8358 73.6923L79.5659 66.7919C78.7933 67.1094 78.0684 67.3369 77.3434 67.3369C76.2533 67.3369 75.9834 66.4268 75.9834 65.2943V41.9579H67.2627V41.9526Z" fill="white"/>
<path d="M99.5579 62.3839C99.5579 64.8816 97.7852 66.9718 95.0653 66.9718C92.43 66.9718 90.615 64.8816 90.615 62.3839C90.615 59.7962 92.43 57.7536 95.0653 57.7536C97.7852 57.7536 99.5579 59.7962 99.5579 62.3839ZM107.956 62.3839C107.956 55.166 102.511 49.8108 95.0653 49.8108C87.7098 49.8108 82.2646 55.166 82.2646 62.3839C82.2646 69.5118 87.7098 74.8247 95.0653 74.8247C102.505 74.8194 107.956 69.5118 107.956 62.3839Z" fill="white"/>
</svg>
