<svg width="32" height="32" viewBox="0 0 32 32" fill="none" xmlns="http://www.w3.org/2000/svg">
<path d="M5.33341 26.6666C4.60008 26.6666 3.9723 26.4055 3.45008 25.8833C2.92786 25.3611 2.66675 24.7333 2.66675 24V7.99998C2.66675 7.26665 2.92786 6.63887 3.45008 6.11665C3.9723 5.59442 4.60008 5.33331 5.33341 5.33331H26.6667C27.4001 5.33331 28.0279 5.59442 28.5501 6.11665C29.0723 6.63887 29.3334 7.26665 29.3334 7.99998V24C29.3334 24.7333 29.0723 25.3611 28.5501 25.8833C28.0279 26.4055 27.4001 26.6666 26.6667 26.6666H5.33341ZM16.0001 17.3333L26.6667 10.6666V7.99998L16.0001 14.6666L5.33341 7.99998V10.6666L16.0001 17.3333Z" fill="#86BBC7"/>
</svg>
