<svg width="32" height="32" viewBox="0 0 32 32" fill="none" xmlns="http://www.w3.org/2000/svg">
<path fill-rule="evenodd" clip-rule="evenodd" d="M16.012 1.59998C8.0426 1.59998 1.6001 8.01662 1.6001 15.9549C1.6001 22.3003 5.72803 27.6717 11.4546 29.5727C12.1705 29.7157 12.4328 29.2639 12.4328 28.8838C12.4328 28.551 12.4092 27.4103 12.4092 26.2218C8.40014 27.0775 7.56529 24.5106 7.56529 24.5106C6.92101 22.8469 5.96639 22.4193 5.96639 22.4193C4.65423 21.54 6.06197 21.54 6.06197 21.54C7.5175 21.6351 8.28125 23.0135 8.28125 23.0135C9.56951 25.1998 11.6454 24.582 12.4806 24.2017C12.5998 23.2748 12.9818 22.6331 13.3874 22.2767C10.1899 21.9439 6.82572 20.7081 6.82572 15.1942C6.82572 13.6256 7.39802 12.3423 8.30485 11.3442C8.16178 10.9878 7.66057 9.51403 8.44822 7.54149C8.44822 7.54149 9.66509 7.16116 12.4089 9.01499C13.5836 8.70076 14.7951 8.54092 16.012 8.53957C17.2289 8.53957 18.4694 8.70611 19.6148 9.01499C22.3589 7.16116 23.5758 7.54149 23.5758 7.54149C24.3635 9.51403 23.862 10.9878 23.7189 11.3442C24.6496 12.3423 25.1983 13.6256 25.1983 15.1942C25.1983 20.7081 21.8341 21.92 18.6127 22.2767C19.1378 22.7282 19.5909 23.5837 19.5909 24.9385C19.5909 26.8635 19.5673 28.4084 19.5673 28.8835C19.5673 29.2639 19.8299 29.7157 20.5456 29.573C26.2721 27.6714 30.4 22.3003 30.4 15.9549C30.4236 8.01662 23.9575 1.59998 16.012 1.59998Z" fill="#86BBC7"/>
</svg>
