<svg width="400" height="400" viewBox="0 0 400 400" fill="none" xmlns="http://www.w3.org/2000/svg">
<g clip-path="url(#clip0_253_34)">
<path d="M121.994 120C122 122.468 122 125.064 122 127.8V215H77V120H121.994Z" fill="#FF58FF"/>
<path d="M77 215V270H209V196.8C209 169.917 209 156.476 203.768 146.208C199.166 137.177 191.823 129.834 182.792 125.232C172.524 120 159.083 120 132.2 120H121.994C122 122.468 122 125.064 122 127.8V215H77Z" fill="#5158FF"/>
<path d="M45.2 51H41V215H77V120H121.994C121.946 98.2148 121.468 86.4314 116.768 77.2085C112.166 68.1767 104.823 60.8336 95.7915 56.2317C85.5238 51 72.0825 51 45.2 51Z" fill="#FF2E5D"/>
</g>
<defs>
<clipPath id="clip0_253_34">
<rect width="400" height="400" fill="white"/>
</clipPath>
</defs>
</svg>
