<svg width="414" height="400" viewBox="0 0 414 400" fill="none" xmlns="http://www.w3.org/2000/svg">
<path fill-rule="evenodd" clip-rule="evenodd" d="M149 183.738H0V181.738H149V176H154.489V109.874C150.238 109.155 147 105.456 147 101C147 96.5443 150.238 92.8449 154.489 92.1263V33H149V27.2617H0V25.2617H149V21H161V33H156.489V92.0131C160.377 92.2212 163.61 94.897 164.649 98.5023C193.028 98.6656 212.972 101.039 230.885 109.222C249.475 117.715 265.657 132.364 286.838 156.687C321.64 196.65 365.196 211.195 405.634 199.586L393.97 193.838C392.979 193.35 392.571 192.151 393.06 191.16C393.548 190.169 394.747 189.762 395.738 190.25L411.884 198.206C412.875 198.694 413.282 199.893 412.794 200.884L404.838 217.03C404.349 218.021 403.15 218.428 402.16 217.94C401.169 217.452 400.761 216.253 401.25 215.262L407.136 203.316C364.812 215.65 319.541 200.33 283.822 159.313C262.726 135.089 247.006 120.984 229.223 112.86C212.148 105.06 192.967 102.68 164.875 102.504C164.186 106.602 160.727 109.76 156.489 109.987V176H161V188H149V183.738ZM156.489 105.976C159.021 105.731 161 103.596 161 101C161 98.4036 159.021 96.2694 156.489 96.0236V105.976ZM154.489 96.2324C152.466 96.8729 151 98.7652 151 101C151 103.235 152.466 105.127 154.489 105.768V96.2324ZM159 31V23H151V31H159ZM159 178V186H151V178H159Z" fill="#A4FFFC"/>
<path d="M151 101C151 98.2386 153.239 96 156 96V96C158.761 96 161 98.2386 161 101V101C161 103.761 158.761 106 156 106V106C153.239 106 151 103.761 151 101V101Z" fill="#2A2E5D"/>
</svg>
