<svg width="32" height="32" viewBox="0 0 32 32" fill="none" xmlns="http://www.w3.org/2000/svg">
<path d="M26.905 3.20001H5.08995C4.04495 3.20001 3.19995 4.02501 3.19995 5.04501V26.95C3.19995 27.97 4.04495 28.8 5.08995 28.8H26.905C27.95 28.8 28.8 27.97 28.8 26.955V5.04501C28.8 4.02501 27.95 3.20001 26.905 3.20001ZM10.795 25.015H6.99495V12.795H10.795V25.015ZM8.89495 11.13C7.67495 11.13 6.68995 10.145 6.68995 8.93001C6.68995 7.71501 7.67495 6.73001 8.89495 6.73001C10.11 6.73001 11.095 7.71501 11.095 8.93001C11.095 10.14 10.11 11.13 8.89495 11.13ZM25.0149 25.015H21.22V19.075C21.22 17.66 21.195 15.835 19.245 15.835C17.27 15.835 16.97 17.38 16.97 18.975V25.015H13.18V12.795H16.82V14.465H16.87C17.375 13.505 18.615 12.49 20.46 12.49C24.305 12.49 25.0149 15.02 25.0149 18.31V25.015Z" fill="#86BBC7"/>
</svg>
