<svg width="120" height="108" viewBox="0 0 120 108" fill="none" xmlns="http://www.w3.org/2000/svg">
<g id="Group 64">
<path id="Path" d="M119.395 22.7199C118.589 21.1075 116.977 20.1401 115.203 19.9788L113.43 19.8176C113.591 19.6564 113.591 19.4951 113.752 19.1727C115.203 16.7541 114.397 13.6906 111.978 12.0782C111.333 11.5945 110.527 11.4332 109.721 11.4332H109.399H109.237H109.076H108.754H108.592L106.174 11.272C106.174 8.53096 104.078 6.27363 101.498 6.11239H100.531H100.369C91.0175 5.3062 81.3432 4.82249 71.9915 4.82249C69.8954 4.82249 66.6706 4.82249 64.5745 4.98373L64.0908 4.50001C63.6071 3.85506 63.1234 3.21011 62.6397 2.56516C62.1559 1.92021 61.511 1.27526 60.7048 0.952782C59.8986 0.469069 59.0924 0.307831 58.125 0.307831H56.9963H56.1902C52.3204 0.469069 48.7732 0.630306 45.0647 0.952782H44.7423C41.195 1.27526 38.1315 1.4365 35.2292 1.75897C34.1006 1.92021 32.9719 2.40392 32.1657 3.21011C27.3286 8.04724 22.6527 15.3029 17.8156 24.4935V24.6547C17.6543 24.816 17.6543 25.1384 17.4931 25.2997C15.7195 28.8469 13.9459 32.5554 12.3335 36.4251C12.3335 36.4251 12.3335 36.4251 12.3335 36.5863L12.011 37.07C10.5599 40.6173 9.10872 44.3257 7.65758 48.1954V48.3567L7.49634 48.8404L7.3351 49.1629V49.3241C6.0452 52.8713 4.91654 56.4186 3.78787 60.127V60.2883L3.62663 60.772V60.9332V61.0945C2.17549 65.6091 1.04683 69.9626 0.240642 73.9935V74.1547V74.4772L0.0794038 74.9609C-0.40431 77.702 1.36931 80.443 4.11035 80.9267C4.43282 80.9267 4.7553 81.088 5.07778 81.088H5.23901C5.07778 81.7329 4.91654 82.3779 4.7553 83.0228V83.1841L4.59406 84.1515C3.94911 86.8925 5.72273 89.6336 8.62501 90.2785C9.10872 90.2785 9.43119 90.2785 9.75367 90.2785H9.91491C9.75367 90.9235 9.59243 91.5684 9.4312 92.2134V92.3746V92.5358V92.6971V92.8583V93.1808C8.78624 95.9218 10.5599 98.6629 13.4621 99.3078C13.7846 99.3078 13.9459 99.4691 14.2683 99.4691H14.5908C14.4296 99.9528 14.4296 100.598 14.2683 101.081C13.7846 103.822 15.5582 106.564 18.2993 107.047C18.6217 107.047 18.9442 107.208 19.2667 107.208C19.5892 107.208 19.7504 107.208 20.0729 107.208C30.2309 105.919 40.3888 105.274 50.5468 105.274C63.9296 105.274 77.3123 106.08 90.5338 107.692C90.695 107.692 91.0175 107.692 91.1787 107.692C93.7586 107.692 95.8546 105.919 96.1771 103.339C99.7243 79.6368 107.625 47.3893 119.395 27.557C120.202 26.2671 120.202 24.3323 119.395 22.7199Z" fill="white"/>
<path id="Path_2" d="M114.881 25.4609C91.5013 23.526 69.4118 24.0097 53.7717 25.7833C39.0991 40.7785 23.9427 77.5407 18.9443 102.855C35.5518 100.436 63.1235 99.9527 91.0176 103.5C94.4036 80.2817 102.466 46.583 114.881 25.4609Z" fill="url(#paint0_linear_368_489)"/>
<path id="Path_3" d="M109.075 16.9154C85.696 14.9806 63.7677 15.4643 47.9664 17.3991C33.2937 32.3942 19.1048 69.4789 14.1064 94.632C30.8752 92.2134 55.867 91.4073 82.6325 93.8258C87.1472 67.5441 95.854 39.1662 109.075 16.9154Z" fill="url(#paint1_linear_368_489)"/>
<path id="Path_4" d="M13.9463 94.9543L14.1075 93.9869C32.4886 91.2458 57.803 90.9234 82.1499 93.1807C87.3095 63.8354 96.5 36.9087 108.432 16.754H109.399C97.4675 37.07 87.9544 64.6416 82.9561 93.9869V94.4706H82.6336C58.1254 92.052 32.3274 92.3745 13.9463 94.9543Z" fill="white"/>
<path id="Path_5" d="M75.2167 50.6141L77.6352 44.1646L89.0831 31.1043C89.5668 30.9431 90.0505 30.9431 90.5342 30.9431C93.4365 24.1711 96.8225 17.7216 100.531 11.4333C78.1189 9.49843 56.9968 9.98214 41.8404 11.7558C27.974 25.9447 14.1075 61.417 9.43164 85.2802C18.1385 84.1515 26.8453 83.3453 35.5522 83.1841C35.0684 82.8616 35.3909 80.9268 35.3909 80.7655C36.0359 78.1857 37.8095 76.2509 40.2281 74.1548C42.6466 72.0587 41.518 70.7688 43.4528 69.9626C47.4838 68.189 51.3535 65.9317 54.9007 63.3518C59.4154 59.9659 61.0277 48.518 61.189 49.3242C61.3502 50.1304 62.9626 49.8079 62.9626 50.4528C62.9626 51.0978 63.4463 52.3877 63.7688 52.5489C64.0912 52.7102 65.3811 49.1629 68.4447 49.0017C70.3795 49.1629 72.3144 49.8079 73.7655 51.0978C73.9268 51.0978 75.0554 50.9365 75.0554 50.9365L75.2167 50.6141Z" fill="url(#paint2_linear_368_489)"/>
<path id="Path_6" d="M90.2115 32.394L89.4053 31.9103L90.0502 30.7816C92.9525 24.1709 96.3385 17.5601 100.047 11.4331H101.014C97.1447 17.7213 93.7587 24.3321 90.8564 31.1041L90.2115 32.394Z" fill="white"/>
<path id="Path_7" d="M61.0274 9.82057C60.705 9.98181 61.1887 10.143 61.8336 10.9492C62.6398 11.9167 63.2848 13.0453 63.7685 14.3352C63.7685 14.9802 62.9623 14.6577 63.9297 15.6251C64.7359 16.5926 67.6382 20.7847 67.9607 21.5909C68.2831 22.3971 68.7669 22.0746 68.7669 21.7522C68.7669 21.2685 69.2506 22.0746 69.4118 22.5584C69.4118 22.8808 69.0893 22.7196 69.0893 22.8808C69.0893 23.0421 70.0568 24.1707 70.7017 26.2668C71.5079 28.5242 72.3141 29.6528 72.1529 31.9101C71.9916 34.0062 71.5079 37.231 69.8955 38.0372C68.2831 38.8434 66.832 39.0046 66.9932 40.617C67.1545 42.2294 68.7669 42.3906 69.8955 43.1968C71.0242 44.003 72.7978 43.6805 73.4428 45.2929C74.0877 46.9053 73.2815 49.6463 72.1529 50.775C71.0242 51.9036 70.7017 52.5486 71.1854 53.0323C71.6691 53.516 72.1529 53.516 72.6366 53.3548C73.1203 53.1935 73.4428 53.516 73.4428 54.161C73.4428 54.8059 73.7652 54.9671 75.5388 53.8385C77.3125 52.7098 78.1187 50.4525 79.5698 48.8401C80.8597 47.2277 81.8271 45.4541 82.7945 43.6805C82.9558 43.358 82.9558 43.1968 82.3108 43.0356C81.6659 42.8743 81.5046 42.2294 81.6659 41.5844V41.4232C82.3108 39.972 83.6007 39.8108 84.7294 39.4883C85.3744 39.3271 85.8581 39.3271 86.503 39.4883C86.9867 39.972 86.6643 40.7782 86.8255 40.617C87.148 40.2945 87.3092 39.972 87.4704 39.4883C87.4704 39.3271 87.4704 39.3271 87.3092 39.1658C87.148 39.1658 86.8255 38.6821 87.148 37.7147C87.6317 36.4248 89.0828 36.9085 89.4053 34.6512C89.889 32.5551 91.0177 31.2652 90.3727 30.459C89.7278 29.6528 88.4379 29.9753 87.3092 30.2978C86.3418 30.7815 85.0519 32.8776 83.6007 32.3939C82.1496 31.9101 78.7636 30.9427 78.2799 29.9753C77.6349 28.2017 77.1512 26.4281 76.8287 24.6544C76.6675 23.3645 75.7001 23.8483 75.2164 23.2033C74.7327 22.5584 74.4102 23.687 74.5714 24.8157C74.7327 25.9443 75.8613 27.073 75.0551 27.5567C74.2489 28.0404 73.7652 25.9443 72.7978 25.4606C71.8304 24.9769 71.3467 24.4932 71.5079 22.3971C71.6691 20.301 69.7343 19.9785 70.0568 18.8499C70.3792 17.7212 70.7017 16.5926 68.2831 14.9802C65.8646 13.3678 64.8972 13.6903 64.091 12.8841C63.2848 12.0779 62.4786 11.5942 62.4786 10.788C62.4786 9.98181 63.1235 9.65933 61.8336 9.98181C61.5112 9.82057 61.3499 9.65933 61.0274 9.82057Z" fill="white"/>
<path id="Path_8" d="M68.1218 56.7409C68.6055 56.2572 68.928 55.6122 69.0892 54.9673C69.2504 54.6448 67.9605 54.6448 67.9605 53.8386C67.9605 52.8712 68.6055 52.065 68.6055 51.5813C68.6055 51.2588 68.283 51.42 68.1218 51.42C67.9605 51.42 67.6381 51.2588 67.6381 51.0976C67.4768 50.6138 66.9931 50.6138 66.0257 50.9363C65.0583 51.2588 64.0908 52.5487 63.7684 52.3875C63.4459 52.3875 62.9622 50.9363 62.9622 50.2914C62.9622 49.6464 61.1885 49.9689 61.3498 49.0015C61.3498 48.679 61.511 48.3565 61.6723 48.1953C61.6723 48.1953 61.8335 48.034 61.6723 47.8728C60.3824 47.7116 59.4149 49.1627 58.77 49.8076C58.125 50.4526 59.7374 52.7099 58.125 53.9998C56.5127 55.2897 55.8677 54.9673 55.7065 55.6122C55.2228 58.837 53.6104 61.7392 51.0306 63.5129C46.6771 67.0601 44.2586 69.1562 42.3237 69.9624C40.3889 70.7686 40.0664 73.3484 37.8091 75.4445C35.5517 77.5405 34.1006 82.2164 35.3905 83.5063C36.3579 84.3125 37.6478 84.635 38.7765 84.1513C39.4214 83.9901 40.0664 84.1513 40.5501 84.635C40.8726 85.1187 42.0013 84.4738 42.6462 85.1187C43.6136 85.7637 44.9035 86.0861 46.0322 85.9249C47.6446 85.7637 50.3856 84.4738 52.6429 80.9265C54.9003 77.2181 54.5778 73.9933 55.0615 72.7034C55.7065 70.9298 57.1576 69.4787 59.0925 68.8337C61.0273 68.35 61.3498 68.0275 61.9947 68.35C62.6397 68.6725 64.0908 68.8337 63.9296 67.705C63.7684 66.5764 62.156 66.8989 62.156 65.9314C62.156 64.964 61.8335 64.3191 63.1234 63.6741C64.4133 63.1904 65.0583 61.4168 65.8644 59.9656C66.3482 58.5145 67.3156 58.0308 68.1218 56.7409Z" fill="white"/>
<path id="Path_9" d="M73.443 44.9706C73.2818 44.8093 73.1206 44.4868 72.9593 44.3256C72.7981 44.1644 72.6369 44.0031 72.4756 44.0031C71.6694 43.5194 70.5408 43.5194 69.8958 42.8745C68.7672 41.907 67.1548 41.907 66.9935 40.2947C66.8323 38.6823 68.2834 38.521 69.8958 37.7148C71.5082 36.9087 71.9919 33.8451 72.1531 31.5878C72.3144 29.4917 71.5082 28.2018 70.702 25.9445C69.8958 24.0096 69.0896 22.881 69.0896 22.5585C69.0896 22.236 69.4121 22.5585 69.4121 22.236C69.2509 21.7523 68.7672 21.2686 68.7672 21.4298C68.7672 21.5911 68.2834 22.0748 67.961 21.2686C67.4772 20.6236 64.575 16.2702 63.93 15.3028C63.2851 14.3354 63.7688 14.6578 63.7688 14.0129C63.2851 12.723 62.6401 11.5943 61.8339 10.6269C61.6727 10.3044 61.3502 10.1432 61.189 9.82072C61.0277 9.82072 61.0277 9.82072 61.189 9.82072C61.0277 9.65948 61.0277 9.65948 61.0277 9.49824C60.3828 8.0471 59.5766 6.7572 58.6092 5.4673C58.4479 5.30606 58.2867 5.14482 57.9642 4.98358C50.0636 5.14482 41.518 5.78977 35.3909 6.43472C22.3307 20.3012 9.43165 52.71 4.91699 75.6057C11.689 74.6383 26.0391 73.5096 35.8746 73.3484H37.1645H38.4545H39.9056C40.7118 71.8973 41.3567 70.7686 42.4854 70.2849C44.259 69.4787 46.8388 67.3826 51.1922 63.8354C53.772 61.9005 55.5457 58.9982 55.8681 55.9347C56.0294 55.2898 56.6743 55.6122 58.2867 54.3223C59.8991 53.0324 58.2867 50.6139 58.9316 49.9689C59.5766 49.324 60.544 47.8728 61.8339 48.0341C61.9952 48.0341 61.8339 48.1953 61.8339 48.3565C61.6727 48.679 61.5114 48.8403 61.5114 49.1627C61.5114 49.9689 63.1238 49.6464 63.1238 50.4526C63.1238 51.0976 63.6075 52.5487 63.93 52.5487C64.2525 52.5487 65.0587 51.4201 66.1873 51.0976L66.5098 50.9363C66.6711 50.9363 66.8323 50.7751 66.9935 50.7751C67.961 50.7751 68.9284 50.9363 69.8958 51.4201C70.3795 51.7425 70.702 52.065 71.0245 52.5487C71.0245 52.2262 71.347 51.5813 72.1531 50.7751C73.2818 49.324 74.088 46.4217 73.443 44.9706Z" fill="url(#paint3_linear_368_489)"/>
<path id="Path_10" d="M34.9063 82.8615C26.3607 83.0227 17.9764 83.8289 9.43077 84.9576L9.26953 85.925C17.9764 84.7963 26.6832 84.1514 35.5513 83.8289L35.39 83.6677C35.2288 83.3452 35.0676 83.0227 34.9063 82.8615Z" fill="white"/>
<path id="Path_11" d="M39.7446 73.1872H38.2934H37.0035H35.7136C25.8781 73.3485 11.528 74.4771 4.75596 75.4446V75.6058V75.9283L4.59473 76.412C11.2055 75.4446 25.8781 74.3159 35.7136 74.1547H37.1648H39.0996C39.2608 73.9934 39.4221 73.8322 39.5833 73.5097L39.7446 73.1872Z" fill="white"/>
<path id="Path_12" d="M40.8732 86.2474C40.067 85.925 40.3895 86.7311 40.3895 87.3761C40.3895 88.021 40.067 87.8598 39.9058 88.5048C39.7445 88.9885 39.5833 89.6334 39.7445 89.9559C39.9058 90.2784 40.067 90.2784 40.5507 89.7947C41.0344 89.3109 41.0344 89.3109 41.6794 89.3109C42.3243 89.3109 42.6468 89.1497 42.6468 88.3435C42.3243 87.2149 41.6794 86.5699 40.8732 86.2474Z" fill="white"/>
<path id="Shape" d="M13.7849 74.6384H14.4299C15.5585 70.2849 16.526 66.0927 17.8159 62.223C20.8794 62.0618 24.5879 61.9006 28.4576 61.7393C27.3289 65.609 26.2002 69.64 25.0716 73.9934H25.8778C27.0064 69.64 27.9738 65.609 29.2638 61.9006C32.6497 61.7393 36.197 61.5781 39.9054 61.5781C38.7768 65.4478 37.6481 69.4787 36.5195 73.6709H36.8419H37.1644C38.1318 69.4787 39.2605 65.4478 40.5504 61.5781C44.0976 61.5781 47.6449 61.5781 51.1921 61.5781C50.8696 62.5455 50.5471 63.5129 50.3859 64.4804C50.5471 64.3191 50.7084 64.1579 51.0308 63.9967L51.3533 63.6742C51.5146 62.868 51.837 62.223 51.9983 61.4169H53.4494C53.6107 61.2556 53.7719 60.9331 53.9331 60.7719H52.1595C53.2882 56.9022 54.5781 53.1937 55.868 49.6465H59.254C59.4152 49.4853 59.5765 49.324 59.8989 49.0015C58.7703 49.0015 57.4804 49.0015 56.1905 48.8403C57.6416 44.8094 59.0927 41.2621 60.5439 37.7149C63.4462 37.7149 66.3484 37.8761 69.2507 38.0374C69.5732 37.8761 69.8957 37.7149 70.0569 37.5537C70.2181 37.5537 70.2181 37.3924 70.3794 37.3924C67.3159 37.2312 64.0911 37.0699 60.8663 37.0699C62.64 33.039 64.4136 29.3305 66.026 25.9445C67.6383 25.9445 69.412 25.9445 71.0243 26.1058L70.8631 25.7833H70.5406C69.0895 25.7833 67.6383 25.6221 66.1872 25.6221C66.8322 24.3322 67.4771 23.2035 68.1221 21.9136C67.9608 21.7524 67.9608 21.7524 67.9608 21.5911L67.7996 21.4299C66.9934 22.7198 66.3484 24.1709 65.5422 25.6221C61.995 25.6221 58.4478 25.6221 54.9006 25.6221C57.1579 21.2686 59.254 17.5602 61.3501 14.4967H63.7686V14.3354C63.7686 14.1742 63.7686 14.0129 63.6074 13.8517H61.6725C61.995 13.2068 62.4787 12.723 62.8012 12.2393C62.64 12.0781 62.4787 11.9169 62.4787 11.5944C61.995 12.2393 61.5113 13.0455 61.0276 13.8517C57.3191 13.8517 53.7719 14.0129 50.5471 14.1742C52.482 11.1107 54.7393 8.20839 57.1579 5.46735H56.3517C53.9331 8.20839 51.837 11.1107 49.9022 14.1742C46.0325 14.3354 42.4852 14.4967 39.4217 14.6579C41.3566 11.5944 43.6139 8.6921 46.0325 5.78982H45.0651C42.6465 8.53086 40.5504 11.4331 38.6155 14.4967C33.7784 14.8191 30.3924 14.9804 29.1025 15.1416C28.9413 15.3028 28.78 15.6253 28.6188 15.7866C29.2638 15.7866 32.811 15.4641 38.1318 15.1416C36.197 18.0439 34.1009 21.7524 31.6823 26.267C26.8452 26.5895 23.4592 26.912 22.1693 26.912L21.8468 27.5569C22.653 27.5569 26.2002 27.2344 31.3598 26.912C29.5862 30.1367 27.9739 33.8452 26.2002 37.8761C21.6856 38.1986 18.2996 38.3599 16.8484 38.5211L16.526 39.166C17.6546 39.0048 21.2019 38.8436 25.8778 38.5211C24.4266 41.9071 22.9755 45.6156 21.5243 49.6465C16.8484 49.969 13.4624 50.2914 12.3338 50.2914L12.1725 50.9364C12.9787 50.9364 16.3647 50.6139 21.3631 50.2914C20.0732 53.6774 18.9445 57.3859 17.6546 61.4169C12.9787 61.7393 9.59274 61.9006 8.46408 62.0618C8.1416 62.3843 8.1416 62.7068 8.1416 62.868C8.94779 62.868 12.3338 62.5455 17.3322 62.223C16.0423 66.0927 14.9136 70.1237 13.7849 74.6384ZM40.0667 60.4494C36.3582 60.4494 32.811 60.6107 29.425 60.7719C30.5537 56.9022 31.8436 53.1937 33.1335 49.6465C36.5194 49.4853 40.0667 49.324 43.7752 49.324C42.4852 53.0325 41.3566 56.5797 40.0667 60.4494ZM48.2898 37.8761C46.8387 41.2621 45.3875 44.9706 43.9364 49.0015C40.2279 49.0015 36.6807 49.1628 33.2947 49.324C34.7458 45.2931 36.197 41.7458 37.6481 38.1986C41.0341 38.0374 44.5813 37.8761 48.2898 37.8761ZM37.9706 37.3924C39.7442 33.3615 41.5178 29.653 43.2914 26.267C46.6774 26.1058 50.2247 25.9445 53.9331 25.9445C52.3208 29.3305 50.5471 32.8778 48.7735 37.0699C44.9038 37.2312 41.3566 37.3924 37.9706 37.3924ZM51.5146 60.4494C47.9673 60.4494 44.4201 60.4494 40.8729 60.4494C42.0015 56.5797 43.2914 52.8713 44.5813 49.324C48.1286 49.324 51.6758 49.324 55.223 49.324C53.9331 52.8713 52.6432 56.5797 51.5146 60.4494ZM55.3843 48.8403C51.837 48.8403 48.2898 48.8403 44.7426 48.8403C46.1937 44.8094 47.6449 41.2621 49.096 37.7149C52.6432 37.7149 56.1905 37.7149 59.7377 37.7149C58.2865 41.2621 56.8354 44.8094 55.3843 48.8403ZM65.2198 26.1058C63.6074 29.4918 61.8338 33.039 60.0602 37.2312C56.5129 37.2312 52.9657 37.2312 49.4185 37.2312C51.1921 33.2002 52.9657 29.4918 54.5781 26.1058C57.9641 26.1058 61.6725 26.1058 65.2198 26.1058ZM49.9022 14.8191C53.2882 14.6579 56.8354 14.4967 60.3826 14.4967C58.4478 17.5602 56.3517 21.1074 54.0944 25.6221C50.3859 25.6221 46.8387 25.7833 43.4527 25.9445C45.8712 21.4299 47.9673 17.7214 49.9022 14.8191ZM38.6155 15.3028C41.6791 15.1416 45.2263 14.9804 49.2572 14.8191C47.3224 17.7214 45.2263 21.4299 42.8077 25.9445C38.938 26.1058 35.2295 26.267 32.166 26.4283C34.4234 21.9136 36.6807 18.3664 38.6155 15.3028ZM31.8436 27.0732C34.9071 26.912 38.6155 26.7507 42.4852 26.5895C40.8729 29.9755 39.0993 33.5227 37.3256 37.7149C33.4559 37.8761 29.7475 38.0374 26.6839 38.1986C28.2963 34.0064 30.0699 30.298 31.8436 27.0732ZM26.3615 38.6823C29.425 38.5211 33.1335 38.3599 37.0032 38.1986C35.552 41.5846 34.1009 45.2931 32.6497 49.324C28.6188 49.4853 25.0716 49.6465 22.0081 49.8077C23.298 45.7768 24.9103 42.0683 26.3615 38.6823ZM21.6856 50.4527C24.7491 50.2914 28.4576 50.1302 32.3273 49.969C31.0374 53.355 29.9087 57.0634 28.78 60.9331C24.7491 61.0944 21.2019 61.2556 18.1383 61.4169C19.267 57.5471 20.3957 53.8387 21.6856 50.4527Z" fill="url(#paint4_linear_368_489)"/>
<path id="Path_13" opacity="0.4" d="M67.3163 49.3241C68.1225 47.0667 68.9287 44.9706 69.7348 42.8745C69.5736 42.7133 69.4124 42.5521 69.2511 42.5521C68.4449 44.8094 67.4775 46.9055 66.6713 49.3241C65.059 49.1628 63.2853 49.1628 61.5117 49.0016C61.5117 49.4853 61.9954 49.4853 62.4791 49.6465C63.769 49.6465 65.0589 49.8078 66.3489 49.8078L66.1876 50.9364C66.3489 50.7752 66.6713 50.7752 66.8326 50.7752L67.155 50.1302C68.9287 50.2915 70.7023 50.4527 72.3147 50.614C72.4759 50.4527 72.6371 50.2915 72.6371 49.969C71.0247 49.6465 69.2511 49.4853 67.3163 49.3241Z" fill="url(#paint5_linear_368_489)"/>
</g>
<defs>
<linearGradient id="paint0_linear_368_489" x1="42.6492" y1="47.5286" x2="99.7901" y2="104.679" gradientUnits="userSpaceOnUse">
<stop stop-color="#73C8E1"/>
<stop offset="1" stop-color="#007199"/>
</linearGradient>
<linearGradient id="paint1_linear_368_489" x1="37.4301" y1="38.9342" x2="94.2392" y2="95.7433" gradientUnits="userSpaceOnUse">
<stop stop-color="#75CBC7"/>
<stop offset="1" stop-color="#008782"/>
</linearGradient>
<linearGradient id="paint2_linear_368_489" x1="31.8588" y1="32.4573" x2="85.9943" y2="86.5834" gradientUnits="userSpaceOnUse">
<stop stop-color="#9DD19A"/>
<stop offset="0.5" stop-color="#06A24A"/>
</linearGradient>
<linearGradient id="paint3_linear_368_489" x1="19.2956" y1="27.0985" x2="66.7046" y2="74.5182" gradientUnits="userSpaceOnUse">
<stop stop-color="#9DD19A"/>
<stop offset="1" stop-color="#06A24A"/>
</linearGradient>
<linearGradient id="paint4_linear_368_489" x1="26.8974" y1="17.1002" x2="52.389" y2="64.0346" gradientUnits="userSpaceOnUse">
<stop stop-color="white" stop-opacity="0.9"/>
<stop offset="1" stop-color="white" stop-opacity="0.1"/>
</linearGradient>
<linearGradient id="paint5_linear_368_489" x1="65.0478" y1="45.6311" x2="67.7296" y2="50.5821" gradientUnits="userSpaceOnUse">
<stop stop-color="#FFF799" stop-opacity="0.9"/>
<stop offset="1" stop-color="#FFF8A3" stop-opacity="0.1"/>
</linearGradient>
</defs>
</svg>
