<svg width="120" height="120" viewBox="0 0 120 120" fill="none" xmlns="http://www.w3.org/2000/svg">
<path d="M28.3802 79.8122C29.8469 78.8223 31.554 78.7061 32.067 76.6784C32.1712 76.2777 32.3755 75.2238 32.1591 74.803C31.8906 74.2901 31.1693 74.25 30.8367 73.8252C30.0713 72.8514 30.9529 71.6612 32.067 71.3407C33.5377 70.9159 34.2269 72.7192 35.5373 73.16C38.0299 74.0015 38.4787 72.5028 39.6408 70.8638C40.0416 70.2907 40.6346 69.7538 41.408 69.9701C42.2696 70.2106 42.0653 70.9519 42.2736 71.7574C42.8186 73.8813 45.0387 74.1618 47.0504 73.8893C49.4267 73.5527 49.583 70.0383 52.5124 70.6434C54.6964 71.1042 53.8468 74.7469 56.5678 75.1116C58.4632 75.368 58.4392 74.7709 59.3489 73.4205C59.8056 72.8005 60.4014 72.2963 61.0883 71.9484C61.7752 71.6004 62.5341 71.4183 63.3041 71.4168C64.7067 71.3928 65.989 71.7534 67.4437 71.7574C69.9518 71.6943 72.4613 71.8081 74.9534 72.098C77.2176 72.4186 80.8522 72.9997 82.1666 75.0875C83.4129 77.0671 83.5451 77.9688 86.0898 78.2413C88.406 78.4897 86.8392 80.0686 87.2038 81.6676C87.5845 83.3386 89.7244 82.3728 90.562 83.9437C90.8741 84.5966 90.9897 85.3262 90.8946 86.0436C90.8224 86.9212 90.1372 88.2997 90.4418 89.1452C91.2953 91.5496 94.2126 89.1012 94.9901 87.9751C97.8233 83.8636 97.5948 78.5699 95.3307 74.2339C92.5256 68.8321 86.2501 66.8565 80.7801 65.1133C77.0012 63.9111 72.9498 63.4182 69.0146 63.0575C65.2437 62.7129 61.625 61.7712 57.8902 61.3704C51.6628 60.7012 45.2591 60.7974 38.9996 60.7974C35.3249 60.7974 30.985 60.577 28.24 63.4703C26.6651 65.1453 24.5773 68.0346 24.3609 70.3589C24.1805 72.3385 24.6814 74.0336 25.1623 75.905C25.6753 77.9087 26.9175 78.8664 28.7689 79.6639C28.6687 79.5597 28.6006 79.4595 28.3802 79.8122Z" fill="#00425D"/>
<path d="M38.4783 67.2852C45.6915 66.4838 49.1418 68.3512 60.7631 69.1527C60.3303 65.8065 57.8417 58.1405 55.9102 51.6326C54.9495 48.4928 54.2669 45.2745 53.8705 42.015C43.4514 40.8128 28.46 42.8165 18.8424 48.4268C7.88637 54.8425 4.63242 63.891 4.06738 76.3458C12.6471 76.2657 20.4734 74.6707 29.1172 74.3421C29.6742 68.6036 35.2604 67.6419 38.4783 67.2852Z" fill="#088179"/>
<path d="M83.3611 72.4948C82.3833 60.4047 70.5617 43.9025 71.3391 32.4215L57.7142 36.4288C56.3517 36.4729 55.0414 34.5213 53.767 34.6936C52.4646 48.5189 60.9201 63.1216 60.9201 71.2926C60.9201 77.1833 59.5015 89.2214 41.2842 87.7226C29.3183 86.7328 28.8615 78.9065 29.1179 74.3381C20.4741 74.6708 7.62264 65.1734 4.06814 76.3418C3.21458 81.1987 7.63867 106.798 38.2627 110.456C69.3355 114.171 84.9761 92.4673 83.3611 72.4948Z" fill="#088179"/>
<path d="M55.9135 51.6326C54.9504 48.4932 54.2665 45.2748 53.8697 42.015C43.4507 40.8128 28.4592 42.8165 18.8416 48.4268C13.58 51.4924 10.1016 55.1791 7.8375 59.5551C6.83567 65.4459 6.63531 71.6533 7.86155 76.1896C14.4095 75.8209 20.6449 74.791 27.3051 74.4023C27.0331 73.317 26.831 72.2154 26.7 71.1042C24.4399 51.9332 48.8285 53.7164 56.7269 54.3736C56.4504 53.4359 56.1739 52.5223 55.9135 51.6326Z" fill="#5BC182"/>
<path d="M7.13641 71.9258C7.00817 86.6447 25.478 103.632 53.3209 97.0316C53.0804 95.6892 50.7161 90.3715 49.3536 87.378C46.6928 87.8708 43.976 87.9868 41.2829 87.7226C33.3684 87.0694 30.4911 83.4228 29.5214 79.708C28.4748 78.034 27.7137 76.1976 27.2692 74.274C20.5449 73.6289 12.0494 68.8201 7.13641 71.9258Z" fill="#5BC182"/>
<path d="M60.7634 69.1527C60.4749 66.9446 59.2968 62.8572 57.9583 58.4611C47.1105 56.8221 30.1434 58.4892 27.5547 69.0365C26.637 72.7793 26.3926 73.8693 29.8469 80.7739C29.0014 77.516 29.0014 75.0675 29.1176 74.3382C29.6746 68.6037 35.2608 67.6419 38.4787 67.2853C45.6919 66.4838 49.1422 68.3512 60.7634 69.1527Z" fill="#00425D"/>
<path d="M60.2906 66.7322C48.9859 66.0309 35.5373 63.4262 30.7846 68.5716C28.6687 70.8598 27.7711 73.0278 27.8472 76.3739C28.248 77.4519 28.8491 78.7382 29.6545 80.3612H29.7507C29.0053 77.3076 28.9933 75.0515 29.1175 74.3502C29.6746 68.6157 35.2608 67.6539 38.4787 67.2973C45.6919 66.4958 49.1422 68.3632 60.7634 69.1647C60.6697 68.3428 60.5116 67.5294 60.2906 66.7322Z" fill="#73C8E1"/>
<path d="M54.9967 46.0784C52.8408 46.0784 50.6915 46.1733 48.549 46.363C44.5232 46.6702 40.5309 47.3191 36.6151 48.3025C32.7663 49.2314 29.055 50.658 25.5749 52.5463C22.2208 54.4377 19.2634 56.742 17.1996 59.6753C15.1358 62.6087 14.0378 66.2393 13.7253 70.1425C13.4127 74.0456 13.7493 78.1572 14.0619 82.3128L13.593 82.425C11.8352 78.5411 10.7226 74.3965 10.299 70.1545C10.1095 67.9273 10.2296 65.6846 10.6556 63.4903C10.8864 62.3615 11.208 61.2532 11.6174 60.1762C12.8891 56.9183 14.9969 54.053 17.7286 51.869C18.6123 51.1608 19.5399 50.5089 20.5057 49.9175C21.4609 49.3443 22.4454 48.8213 23.4551 48.3506C27.4624 46.5152 31.642 45.4413 35.7896 44.5997C39.941 43.7819 44.1547 43.3207 48.3847 43.2212C50.4885 43.1691 52.5924 43.2212 54.6882 43.3254L54.9967 46.0784Z" fill="#B0EDA8"/>
<path d="M57.6774 92.7438C61.817 87.8548 65.7281 75.6645 63.0472 67.165C60.3663 58.6655 55.3331 41.6744 56.7277 34.2368C54.6599 33.7319 53.8985 31.62 53.7662 34.6896C53.634 37.7592 51.5261 39.4463 59.5809 66.1672C62.1496 75.1155 59.4687 83.9477 51.7506 86.9692C44.0324 89.9907 57.6774 92.7438 57.6774 92.7438Z" fill="url(#paint0_linear_425_2040)"/>
<path d="M100.619 105.423C102.967 106.092 107.868 105.86 105.921 102.341C103.973 98.8229 106.514 99.9931 108.041 100.025C109.567 100.057 112.773 99.444 110.333 96.7311C107.892 94.0181 110.465 94.1464 111.223 93.7897C111.98 93.433 115.158 93.954 115.382 92.1868C115.607 90.4195 113.595 88.8607 112.477 88.5281C111.359 88.1955 112.757 87.0293 113.791 86.9933C114.825 86.9572 120.792 84.7251 114.232 83.046C112.365 82.7094 113.258 81.5232 114.232 81.4431C115.206 81.363 118.051 80.9382 118.183 79.7079C118.315 78.4777 116.22 76.5501 112.894 76.6183C112.493 75.4561 115.935 74.5745 116.392 73.6568C117.398 71.6532 114.156 70.1304 111.251 70.5031C109.796 69.7537 110.85 67.6539 111.808 67.5216C114.232 67.181 113.038 63.6024 108.341 64.5402C103.841 65.4378 105.769 79.223 105.769 79.223L100.619 105.423Z" fill="#00425D"/>
<path d="M83.4006 87.9551C85.288 88.3197 87.0833 87.3219 87.3878 85.735C87.6924 84.1481 86.394 82.5532 84.4986 82.1845C83.2404 81.9133 82.0837 81.294 81.1605 80.3972V80.3532L81.3328 79.2511C81.3328 77.9167 82.7033 77.6121 84.5386 77.3156C86.374 77.0191 87.6684 75.4682 87.4079 73.8733C87.1474 72.2784 85.4443 71.2164 83.6129 71.513C81.7816 71.8095 80.1145 71.4128 79.9062 70.6314C79.6978 69.8499 80.8399 67.3013 82.9918 66.624C85.1437 65.9468 86.5062 64.1074 86.0093 62.5686C85.5124 61.0298 83.2803 60.3606 81.0362 61.0819C78.7921 61.8032 76.4599 61.3103 75.8267 59.9919L75.426 59.2626L75.4019 59.2145C75.3699 59.1544 77.1611 58.5212 79.3852 57.8079C81.6093 57.0946 83.0239 55.2512 82.527 53.7124C82.0301 52.1736 79.7419 51.5204 77.4336 52.2618L77.1932 52.3419C74.885 53.0833 72.729 52.9871 72.3844 52.1295C72.0398 51.272 73.0977 48.3145 75.4059 47.5732L75.8628 47.4289C78.171 46.6876 79.6577 44.8202 79.1608 43.2853C78.6639 41.7505 76.3757 41.0933 74.0675 41.8347L73.5746 41.995C71.2664 42.7363 69.0984 42.3076 68.7658 41.0493C68.4332 39.7909 66.8904 36.1323 65.3596 34.2368L62.8189 35.8638C60.5187 35.0944 58.6112 36.2004 58.5792 38.3283C58.5471 40.4562 58.2145 46.1907 56.7238 46.4351C55.9845 46.5841 55.3343 47.0197 54.9153 47.6468C54.4963 48.2738 54.3425 49.0412 54.4877 49.7812C54.6401 50.569 55.0984 51.2644 55.7624 51.715C56.4263 52.1656 57.2417 52.3349 58.0302 52.1856C59.7172 51.9091 61.3402 52.3539 61.6368 53.1754C61.9333 53.9969 61.0597 56.0046 59.2885 56.5737C57.5172 57.1427 56.4833 58.8658 56.9722 60.4007C57.4611 61.9355 59.4207 62.7009 61.3122 62.0917C63.2036 61.4826 64.9709 61.5387 65.2353 62.22C65.4998 62.9012 64.9067 65.2656 63.3519 65.7665C62.605 66.0033 61.9822 66.5261 61.6195 67.2206C61.2569 67.9152 61.1838 68.725 61.4164 69.4733C61.6462 70.208 62.1575 70.8219 62.8385 71.1808C63.5196 71.5397 64.315 71.6145 65.051 71.3888C66.5578 70.9079 67.9082 71.0842 68.0565 71.7895C68.2048 72.4948 67.255 74.4464 65.6962 74.5025C64.9324 74.5469 64.2172 74.8917 63.7067 75.4615C63.1962 76.0314 62.9318 76.78 62.9712 77.544C63.0066 78.3261 63.3502 79.0624 63.9269 79.5918C64.5037 80.1212 65.2666 80.4007 66.0488 80.3692C67.6798 80.3091 69.0062 81.0544 68.9942 82.0282C68.9822 83.002 67.4394 85.1459 65.7883 84.8133C65.016 84.6487 64.2098 84.796 63.5456 85.2231C62.8813 85.6502 62.4127 86.3225 62.2419 87.0935C62.0892 87.8563 62.2446 88.6486 62.6741 89.2973C63.1035 89.946 63.7722 90.3984 64.5341 90.5558C66.137 90.8764 66.4776 92.8841 65.3355 95.024C63.9065 97.4662 62.0496 99.6313 59.8535 101.416L58.7314 102.321C57.3289 103.055 56.9362 104.569 55.6097 104.097C54.8083 103.816 53.5099 103.171 52.0312 103.816C51.5307 103.997 51.0876 104.308 50.7474 104.717C50.4071 105.127 50.1822 105.619 50.0956 106.144C49.9073 107.347 48.5168 108.148 47.5189 107.31C46.6253 106.541 45.4271 106.156 43.8122 106.22C42.1972 106.285 40.5782 106.713 39.9291 107.479C39.2037 108.34 36.7472 108.02 35.5931 108.232C32.8014 108.788 29.9176 108.676 27.1777 107.904C30.1497 109.231 33.288 110.149 36.5068 110.633C42.4177 110.905 48.3391 110.845 54.2432 110.452C62.7348 109.787 70.6172 103.596 74.1837 100.53L75.2777 99.5884C76.2675 97.7851 78.4475 96.7832 80.1266 97.3683C81.8056 97.9534 83.6129 97.184 84.1339 95.6572C84.6549 94.1304 83.7332 92.4072 82.0661 91.8302C80.3991 91.2531 79.1648 90.2593 79.3291 89.6301C79.4934 89.001 81.4971 87.5904 83.4006 87.9551Z" fill="#00425D"/>
<path d="M4.82078 83.4789C3.0816 83.3306 1.91546 85.226 1.47866 86.6847C0.85352 88.7846 2.44443 89.4898 4.28379 89.6622C5.42588 89.7744 7.57381 89.55 6.68819 91.2651C5.97489 92.6677 5.26158 93.425 5.16941 95.0961C5.04519 97.236 5.85867 98.8229 8.0587 99.5042C8.99241 99.7927 12.8114 99.0674 12.5189 100.706C12.4668 101.003 11.9699 101.508 11.8296 101.824C11.5489 102.467 11.4121 103.163 11.4289 103.864C11.4289 104.894 11.8296 106.012 12.8835 106.361C13.9263 106.635 15.0349 106.491 15.9732 105.96C16.7746 105.499 18.7262 104.289 19.7441 104.878C20.4854 105.307 19.696 106.649 19.688 107.383C19.688 108.537 20.0606 108.901 21.1987 109.246C22.6374 109.687 23.523 109.33 24.8855 108.717C25.7511 108.316 25.7671 107.835 26.7609 107.948C26.7609 109.078 28.6163 110.088 29.53 110.288C30.4436 110.488 33.385 110.993 33.9741 109.45C34.5632 107.908 36.8754 106.878 38.9031 108.072C39.6605 108.517 39.5323 108.677 40.3778 108.949C40.3778 109.066 38.1257 109.226 38.1097 109.35C37.5326 109.526 37.0477 109.35 36.4667 109.25C35.4969 109.054 34.5471 109.206 33.5653 109.214C31.8182 109.214 30.079 108.541 28.4881 107.867C27.3948 107.383 26.3575 106.781 25.3944 106.072C24.4778 105.48 23.5013 104.985 22.4811 104.597C21.4358 104.134 20.4573 103.533 19.5718 102.81C15.5123 99.7646 11.481 96.9114 9.73777 91.9423C8.86016 89.4418 7.61789 87.0895 6.78036 84.6169C6.06305 82.5011 4.86085 80.4413 4.62842 78.1731C4.53626 77.2595 4.14354 75.3119 4.22769 73.6449C3.0816 73.6449 1.16208 76.7465 1.02183 77.8125C0.957122 78.4299 1.03674 79.0539 1.25441 79.6353C1.47208 80.2167 1.82185 80.7395 2.27612 81.1626C2.74899 81.5634 4.00729 81.4391 4.46012 81.908C4.68453 82.1524 4.29582 83.2985 4.82078 83.4789Z" fill="#00425D"/>
<path d="M4.58364 70.4871C4.58364 70.6313 2.50384 68.3632 3.24119 66.3515C3.41234 65.802 3.76175 65.3251 4.2342 64.9964C4.70665 64.6676 5.27519 64.5057 5.84996 64.5362C5.84996 64.5362 4.80805 68.6397 4.58364 70.4871Z" fill="#00425D"/>
<path d="M27.25 108.16C25.5989 110.324 27.4263 111.722 29.1054 111.943C30.7844 112.163 33.249 111.578 33.8621 110.376C34.4752 109.174 33.2129 107.863 30.6562 107.635C28.0995 107.407 27.6988 107.571 27.25 108.16Z" fill="#00425D"/>
<path d="M40.7337 110.464C40.2328 111.546 38.161 112.752 35.9249 112.191C33.6888 111.63 33.2961 109.843 34.4702 109.338C35.6444 108.833 40.7337 110.464 40.7337 110.464Z" fill="#00425D"/>
<path d="M47.5756 110.075C46.8503 111.234 42.8229 112.965 40.5868 110.4C38.3507 107.835 47.5756 110.075 47.5756 110.075Z" fill="#00425D"/>
<path d="M70.5763 45.1808C70.5474 45.15 70.5255 45.1132 70.5124 45.0731C70.4992 45.0329 70.4951 44.9903 70.5002 44.9484C70.5084 44.8594 70.5357 44.7733 70.5803 44.6959C70.6627 44.5548 70.7653 44.4266 70.8849 44.3152C71.1089 44.1131 71.3581 43.9407 71.6262 43.8023C72.1317 43.5394 72.6711 43.3479 73.2292 43.2332C73.5095 43.175 73.7933 43.1348 74.0787 43.113C74.223 43.113 74.3673 43.093 74.5236 43.113C74.6852 43.1139 74.8464 43.1313 75.0044 43.1651C75.3375 43.2167 75.6512 43.3549 75.9141 43.5659C76.1349 43.789 76.2949 44.0649 76.379 44.3673C76.1346 44.249 75.8797 44.1537 75.6176 44.0828C75.3956 44.0516 75.1703 44.0516 74.9483 44.0828C74.5276 44.1429 73.9826 44.2992 73.4736 44.3954C72.9647 44.4915 72.4397 44.5917 71.9228 44.6799C71.6663 44.72 71.4098 44.764 71.1614 44.8161C71.0396 44.8381 70.9201 44.8716 70.8047 44.9163C70.7085 44.9724 70.6003 45.0245 70.5763 45.1808Z" fill="#0096CC"/>
<path d="M73.8545 55.0228C73.9868 54.7409 74.188 54.497 74.4396 54.3135C74.6858 54.1282 74.9553 53.976 75.241 53.8607C75.7851 53.6379 76.3589 53.4961 76.9441 53.4399C77.5253 53.3708 78.1131 53.3816 78.6913 53.472C79.0321 53.5338 79.3511 53.6829 79.617 53.9048C79.8533 54.1203 80.0242 54.3981 80.1099 54.7062L79.9296 54.7503C79.9516 54.7209 79.966 54.6865 79.9716 54.6501C79.9772 54.6138 79.9738 54.5766 79.9617 54.5419C80.0074 54.5635 80.0466 54.5967 80.0754 54.6382C80.1043 54.6797 80.1217 54.728 80.126 54.7784L80.146 54.9587L79.9456 54.8224C79.7395 54.6686 79.5074 54.5533 79.2604 54.4818C79.0446 54.4345 78.8225 54.4237 78.6032 54.4498C78.1303 54.4938 77.5613 54.562 77.0363 54.602L75.4534 54.7223C74.9097 54.7532 74.3723 54.8542 73.8545 55.0228V55.0228Z" fill="#0096CC"/>
<path d="M77.0615 63.5945C77.3597 63.0157 77.8029 62.5241 78.3479 62.1679C78.6538 61.99 78.9913 61.873 79.3417 61.8233C79.6673 61.7823 79.9961 61.7729 80.3235 61.7952C80.632 61.8192 80.9246 61.8593 81.2011 61.8994C81.4776 61.9395 81.7621 61.9595 82.0707 62.0156C82.393 62.0651 82.7071 62.1582 83.0044 62.2921C83.3092 62.4299 83.5679 62.6525 83.7497 62.9333C83.1838 62.8379 82.6051 62.8474 82.0426 62.9614C81.7412 63.0046 81.4374 63.0301 81.1329 63.0375C80.8204 63.0375 80.5198 63.0135 80.2393 62.9974C79.7327 62.9313 79.2189 62.9448 78.7165 63.0375C78.2317 63.1337 77.6907 63.4342 77.0615 63.5945Z" fill="#0096CC"/>
<path d="M67.5199 65.8306C66.9889 65.9262 66.472 66.0878 65.981 66.3115C65.5224 66.5279 65.0792 66.7756 64.6546 67.0528C64.4613 67.1641 64.2823 67.2987 64.1216 67.4535C63.9549 67.6129 63.8033 67.7872 63.6688 67.9745C63.5355 68.1472 63.4263 68.3373 63.3442 68.5395C63.2672 68.7154 63.2558 68.913 63.3122 69.0966L62.8874 69.1807C63.0326 68.9797 63.1374 68.7524 63.1959 68.5115C63.3393 68.7644 63.3982 69.0563 63.3643 69.345L63.3202 69.6977L62.9194 69.4292C62.7727 69.3087 62.6559 69.156 62.578 68.9829C62.5001 68.8098 62.4634 68.621 62.4706 68.4313C62.4776 68.0878 62.5597 67.75 62.7111 67.4415C62.8514 67.1504 63.0321 66.8806 63.248 66.6401C63.3626 66.5151 63.4872 66.3999 63.6207 66.2954C63.7492 66.201 63.883 66.114 64.0215 66.035C64.5486 65.7269 65.134 65.5318 65.7406 65.4619C66.3585 65.3746 66.9875 65.5049 67.5199 65.8306V65.8306Z" fill="#0096CC"/>
<path d="M64.2367 56.5136C63.6717 56.754 63.1748 56.9944 62.6819 57.2429C62.189 57.4914 61.7161 57.7438 61.2753 58.0444C60.8481 58.305 60.4516 58.6128 60.0931 58.962C59.7388 59.3035 59.4946 59.7431 59.3918 60.2243L59.0512 60.0681C59.0887 60.0652 59.125 60.054 59.1576 60.0352C59.1902 60.0165 59.2182 59.9908 59.2396 59.9599C59.2917 59.8797 59.3397 59.7675 59.3918 59.6633C59.4358 59.7762 59.4628 59.8951 59.472 60.016C59.4715 60.0909 59.456 60.1649 59.4264 60.2338C59.3968 60.3026 59.3537 60.3648 59.2997 60.4167L59.0512 60.6371L58.9591 60.2604C58.9137 60.101 58.8775 59.9391 58.8509 59.7755C58.8349 59.6049 58.8349 59.4332 58.8509 59.2626C58.9123 58.9236 59.0388 58.5997 59.2235 58.3088C59.5862 57.7603 60.0791 57.3101 60.6582 56.9985C61.1974 56.6913 61.7881 56.4849 62.4013 56.3893C63.0139 56.2759 63.6451 56.3186 64.2367 56.5136V56.5136Z" fill="#0096CC"/>
<path d="M61.6293 46.7477C61.1725 47.0081 60.8279 47.2806 60.4271 47.5491C60.0264 47.8176 59.6577 48.0621 59.269 48.3065L58.9805 48.4828L58.7561 48.6351C58.6243 48.7362 58.507 48.8548 58.4074 48.9878C58.1862 49.3592 58.0303 49.7658 57.9466 50.19L57.646 50.0978C57.6685 50.0948 57.6896 50.0858 57.7073 50.0717C57.7249 50.0575 57.7384 50.0389 57.7462 50.0176C57.7783 49.9615 57.7983 49.8854 57.8344 49.8213C57.8664 49.8894 57.8985 49.9455 57.9306 50.0217C57.9664 50.1145 57.9664 50.2173 57.9306 50.3102L57.7943 50.5787L57.63 50.218C57.3701 49.7072 57.317 49.1159 57.4818 48.567C57.587 48.2621 57.7644 47.9872 57.9987 47.7655C58.1086 47.6628 58.2266 47.569 58.3513 47.485C58.4635 47.4089 58.5677 47.3488 58.6799 47.2846C59.1225 47.0315 59.5988 46.8426 60.0945 46.7236C60.5974 46.5812 61.1311 46.5895 61.6293 46.7477Z" fill="#0096CC"/>
<path d="M64.5699 78.0489C64.4845 78.0524 64.4003 78.0286 64.3294 77.9808C64.2937 77.9462 64.2659 77.9043 64.248 77.858C64.23 77.8116 64.2222 77.7619 64.2252 77.7123C64.2376 77.5582 64.2812 77.4082 64.3535 77.2715C64.4747 77.0154 64.6196 76.7713 64.7863 76.5422C65.1339 76.0863 65.5519 75.6886 66.0245 75.364C66.2764 75.1841 66.5448 75.0285 66.826 74.8992C66.8782 74.8782 66.9317 74.8608 66.9863 74.8471L67.1506 74.823C67.2388 74.823 67.3149 74.823 67.3911 74.823C67.5252 74.827 67.659 74.8391 67.7918 74.8591C68.0496 74.9062 68.304 74.9704 68.5532 75.0514L68.9138 75.1717L69.0781 75.2318C69.1302 75.2318 69.1583 75.2799 69.2104 75.2518H69.3306C69.3423 75.2797 69.3483 75.3097 69.3483 75.34C69.3483 75.3702 69.3423 75.4002 69.3306 75.4281C69.3065 75.4775 69.274 75.5223 69.2344 75.5604C69.1659 75.6203 69.0921 75.6739 69.014 75.7207C68.8784 75.7969 68.7346 75.8574 68.5852 75.901C68.3176 75.9884 68.0404 76.0435 67.7597 76.0653C67.6275 76.0653 67.4952 76.0653 67.359 76.0653H67.1987C67.1787 76.0653 67.1666 76.0653 67.1666 76.0653C67.1666 76.0653 67.1666 76.0653 67.1346 76.0653C66.9082 76.0824 66.6862 76.1365 66.4774 76.2256C66.2514 76.321 66.033 76.4335 65.8242 76.5622C65.716 76.6223 65.6078 76.6904 65.5036 76.7586C65.4003 76.8245 65.3013 76.8967 65.2071 76.975C65.0056 77.128 64.8191 77.2997 64.65 77.4879C64.5721 77.5688 64.5085 77.6623 64.4617 77.7644C64.4487 77.7979 64.4487 77.8351 64.4617 77.8686C64.4926 77.907 64.5346 77.935 64.5819 77.9488L64.5699 78.0489Z" fill="#0096CC"/>
<path d="M80.5156 73.3684C80.6386 73.1231 80.8531 72.936 81.1127 72.8474C81.3505 72.7504 81.5976 72.6779 81.8501 72.631C82.3375 72.5456 82.8302 72.4948 83.3248 72.4787C83.5604 72.4642 83.7947 72.4334 84.0261 72.3866C84.3023 72.3406 84.5851 72.3543 84.8556 72.4266C85.1857 72.5144 85.4792 72.7054 85.6931 72.9716C85.7966 73.1034 85.8664 73.2584 85.8964 73.4232C85.9264 73.588 85.9158 73.7576 85.8654 73.9174V73.9775L85.8414 74.0176V74.0456L85.8214 74.0697C85.8044 74.0885 85.7832 74.1031 85.7595 74.1121C85.7358 74.1212 85.7103 74.1245 85.6851 74.1218C85.655 74.1167 85.6271 74.1028 85.605 74.0817C85.5804 74.0594 85.5636 74.03 85.5569 73.9975V73.9975C85.5562 73.9895 85.5562 73.9815 85.5569 73.9735C85.5629 73.9558 85.5725 73.9394 85.5849 73.9254L85.645 73.8412H85.7653L85.8174 73.9254C85.8174 73.9254 85.8174 73.9535 85.8414 73.9575C85.8654 73.9615 85.8414 73.9575 85.8414 73.9575C85.834 73.9253 85.8172 73.896 85.7933 73.8733C85.7703 73.8568 85.7445 73.8446 85.7172 73.8372C85.692 73.8348 85.6666 73.8383 85.643 73.8473C85.6193 73.8564 85.5981 73.8707 85.5809 73.8893V73.9134C85.5809 73.9134 85.5809 73.9374 85.5809 73.9134C85.5809 73.8893 85.5809 73.9134 85.5809 73.9134V73.9695C85.4639 73.8172 85.2961 73.7119 85.1081 73.6729C84.9582 73.6495 84.8069 73.6361 84.6552 73.6329C84.453 73.6178 84.2521 73.5883 84.0541 73.5447C83.8457 73.5006 83.5572 73.4605 83.3208 73.4205C82.8439 73.3483 82.3871 73.2602 81.9302 73.2161C81.4734 73.172 80.9845 73.1359 80.6639 73.4285L80.5156 73.3684Z" fill="#0096CC"/>
<path d="M79.7617 82.4129C80.2471 82.3983 80.7322 82.4481 81.2044 82.5612C81.6821 82.6681 82.1479 82.8225 82.5949 83.022C82.8233 83.1262 83.0397 83.2264 83.2842 83.3586C83.5375 83.484 83.7615 83.6615 83.9414 83.8796C84.2524 84.3047 84.4246 84.8155 84.4343 85.3422L83.8973 85.4064C83.905 85.4013 83.9141 85.3987 83.9233 85.3987C83.9326 85.3987 83.9416 85.4013 83.9494 85.4064C83.9494 85.4064 83.9935 85.4064 83.9975 85.4064C84.0015 85.4064 83.9614 85.2461 83.9694 85.1579L84.0776 85.1018C84.1513 85.1225 84.2236 85.1479 84.294 85.1779C84.3556 85.2204 84.4008 85.2826 84.4222 85.3543C84.4461 85.417 84.4583 85.4835 84.4583 85.5506V86.0716L83.9093 85.6187C83.5741 85.3312 83.2594 85.0206 82.9676 84.689C82.8434 84.5528 82.7432 84.4005 82.6109 84.2522C82.4652 84.0946 82.3026 83.9535 82.1261 83.8315C81.3927 83.285 80.5824 82.8502 79.7217 82.5411L79.7617 82.4129Z" fill="#0096CC"/>
<path d="M67.6917 86.4723C67.3516 86.4404 67.0085 86.4593 66.6739 86.5284C66.5096 86.5565 66.3413 86.5885 66.177 86.6286C66.1058 86.6399 66.0359 86.6587 65.9686 86.6847L65.7963 86.7688C65.6714 86.8395 65.5579 86.9287 65.4597 87.0333C65.3749 87.1402 65.278 87.237 65.1711 87.3219C65.071 87.394 64.9668 87.4501 64.8706 87.5062C64.7527 87.5577 64.6474 87.6343 64.562 87.7306L64.1413 87.6024C64.1413 87.6024 64.1613 87.6985 64.1974 87.6665C64.2334 87.6344 64.2575 87.5703 64.3056 87.5383L64.4218 87.5583C64.4498 87.6024 64.4899 87.6104 64.518 87.6585C64.5422 87.6995 64.5508 87.7479 64.542 87.7947C64.5377 87.8441 64.5226 87.892 64.4979 87.935L64.3697 88.2235L64.0772 87.8228C64.0028 87.7047 63.9553 87.5717 63.938 87.4332C63.9207 87.2947 63.934 87.1541 63.977 87.0213C64.0403 86.7867 64.1616 86.5717 64.3296 86.3962C64.6674 86.1278 65.0693 85.9524 65.4957 85.8872C65.6052 85.8625 65.7164 85.8464 65.8283 85.8391C65.9337 85.8297 66.0396 85.8297 66.1449 85.8391C66.3253 85.8632 66.5096 85.8912 66.6899 85.9313C67.0587 86.0004 67.4118 86.1362 67.7318 86.332L67.6917 86.4723Z" fill="#0096CC"/>
<path d="M76.4473 91.4855C76.8743 91.3033 77.3301 91.1975 77.7937 91.1729C78.2653 91.152 78.7375 91.1979 79.1963 91.3092L79.8776 91.4735L80.0539 91.5176C80.1197 91.5368 80.184 91.5609 80.2462 91.5897C80.3633 91.6375 80.4749 91.698 80.5788 91.77C80.9037 92.032 81.1945 92.3335 81.4444 92.6677L81.0838 92.9121C81.1665 92.8205 81.2293 92.7127 81.2681 92.5956L81.3763 92.5475C81.4469 92.598 81.5069 92.662 81.5526 92.7358C81.6023 92.8115 81.6376 92.8958 81.6568 92.9843L81.6969 93.2047L81.2961 93.2287C80.8006 93.2365 80.3139 93.097 79.8976 92.828C79.8174 92.779 79.7411 92.7241 79.6692 92.6637L79.569 92.5875C79.5369 92.5595 79.4848 92.5274 79.4448 92.4994C79.2735 92.3814 79.0925 92.2781 78.9038 92.1908C78.533 92.0076 78.1451 91.8613 77.7456 91.754C77.3328 91.6453 76.9059 91.5994 76.4793 91.6178L76.4473 91.4855Z" fill="#0096CC"/>
<path d="M78.0106 46.2588C77.3938 46.7816 76.6784 47.1754 75.9068 47.4169L75.4499 47.5612C75.2793 47.6181 75.1132 47.6878 74.953 47.7696C75.4379 49.0238 76.0911 50.7029 76.8004 52.4541L77.2212 52.3299L77.4616 52.2497C79.7698 51.5084 82.062 52.1616 82.5549 53.7004C83.0478 55.2392 81.6372 57.0786 79.4132 57.7959L79.0926 57.8961L79.3531 58.4691C79.7859 59.4068 80.1545 60.3205 80.5072 61.2141C80.6875 61.1741 80.8678 61.126 81.0442 61.0699C83.2883 60.3486 85.5244 61.0178 86.0173 62.5566C86.5102 64.0954 85.1557 65.9187 82.9997 66.612C82.7373 66.697 82.4847 66.8098 82.2464 66.9486C82.619 68.5155 82.9116 70.0463 83.1921 71.5691C83.3323 71.5691 83.4766 71.537 83.6209 71.513C85.4522 71.2164 87.1594 72.2784 87.4158 73.8733C87.5106 74.4749 87.3945 75.0907 87.0872 75.6165C89.7641 79.4956 90.9262 85.9354 87.7685 90.5278C84.0256 95.9737 63.7044 102.265 50.3159 80.9502C47.5349 76.5422 44.7297 79.8602 45.1064 81.8238C47.615 94.503 58.1022 112.568 79.7418 112.167C96.0917 111.863 113.608 103.023 114.205 82.5131C114.758 64.1155 100.279 50.3944 78.0106 46.2588Z" fill="#088179"/>
<path d="M76.6889 106.429C59.0125 103.379 51.1942 88.1995 48.7337 83.6151C47.3832 81.0985 46.2372 80.4373 45.2714 80.4774C45.0968 80.9034 45.0441 81.3696 45.1191 81.8238C47.6277 94.5031 58.1149 112.568 79.7545 112.167C96.1044 111.863 113.62 103.023 114.218 82.5131C114.315 79.4174 113.957 76.3241 113.156 73.3323C112.222 96.2583 93.4595 109.318 76.6889 106.429Z" fill="#00425D"/>
<path d="M86.0169 62.5566C86.1424 62.9558 86.1522 63.3824 86.045 63.7869C87.8683 65.3217 89.2508 67.0729 89.884 69.0765C93.2422 79.3634 93.3504 86.4083 91.8877 89.4298C90.425 92.4513 91.0862 94.5752 94.236 91.3293C98.4357 86.9773 106.659 73.4365 101.048 62.9253C97.5581 56.3653 90.5372 48.4989 77.9902 46.2588C77.3734 46.7816 76.658 47.1754 75.8864 47.4169L75.4295 47.5612C75.2589 47.6181 75.0928 47.6878 74.9326 47.7696C75.4175 49.0238 76.0707 50.7029 76.78 52.4541L77.2008 52.3299L77.4412 52.2498C79.7494 51.5084 82.0416 52.1616 82.5345 53.7004C83.0274 55.2392 81.6169 57.0786 79.3928 57.7959L79.0722 57.8961L79.3327 58.4691C79.5892 59.0221 79.8216 59.5671 80.042 60.1041C80.595 60.3713 81.1293 60.6384 81.6449 60.9056C83.6927 60.4888 85.5721 61.1621 86.0169 62.5566Z" fill="#5BC182"/>
<path d="M79.1879 48.1142C78.2863 47.7936 77.3726 47.493 76.4589 47.2085C76.2826 47.2846 76.0982 47.3528 75.9059 47.4169L75.4491 47.5611C75.2785 47.6181 75.1124 47.6878 74.9521 47.7695C75.0042 47.8978 75.0563 48.034 75.1084 48.1703C76.3748 48.4428 77.6371 48.7433 78.8833 49.0799C79.8772 49.3404 80.859 49.6329 81.8327 49.9495C82.8046 50.2547 83.7551 50.6242 84.6779 51.0555C86.5975 52.0173 86.5454 51.6767 84.9144 50.6548C84.012 50.1293 83.0748 49.666 82.1092 49.2683C81.1395 48.8488 80.1657 48.4641 79.1879 48.1142Z" fill="#B0EDA8"/>
<path d="M62.5217 37.4306C72.1491 37.4306 79.9536 30.7923 79.9536 22.6035C79.9536 14.4147 72.1491 7.7764 62.5217 7.7764C52.8944 7.7764 45.0898 14.4147 45.0898 22.6035C45.0898 30.7923 52.8944 37.4306 62.5217 37.4306Z" fill="#088179"/>
<path d="M68.3609 33.2951C62.0374 36.7173 51.2537 32.0929 47.6631 30.3577C50.7327 34.5974 56.2508 37.4426 62.5223 37.4426C70.6772 37.4426 77.5297 32.6579 79.4292 26.2221C78.4794 18.6402 74.6244 29.9049 68.3609 33.2951Z" fill="#00425D"/>
<path d="M74.5653 11.8839C71.1445 9.18215 66.9021 7.73264 62.5433 7.77641C55.9873 7.77641 50.2809 10.854 47.3154 15.3903C48.7541 19.2855 54.8051 21.738 61.7017 21.0006C68.8789 20.2112 74.429 16.2239 74.5653 11.8839Z" fill="#5BC182"/>
<path d="M52.7359 19.8785C52.9763 18.3758 51.169 16.6326 50.1511 15.3102C47.2218 11.3389 39.8082 7.95271 35.8369 7.43176C31.8657 6.91081 21.0098 6.63029 21.3424 7.97275C21.667 8.99061 22.4324 7.97275 30.7837 8.81429C39.135 9.65583 43.4749 14.128 44.9777 15.6909C46.4804 17.2537 47.3821 20.3594 49.0451 21.4734C49.3761 21.7014 49.7596 21.8416 50.1596 21.8807C50.5596 21.9199 50.9629 21.8568 51.3319 21.6974C51.7008 21.538 52.0232 21.2874 52.2688 20.9693C52.5143 20.6511 52.6751 20.2758 52.7359 19.8785V19.8785Z" fill="#088179"/>
<path d="M69.1058 19.8785C68.8653 18.3758 70.6726 16.6326 71.6945 15.3102C74.6239 11.3389 82.0334 7.95271 86.0047 7.43176C89.976 6.91081 100.832 6.63029 100.499 7.97275C100.175 8.99061 99.4132 7.97275 91.0579 8.81429C82.7026 9.65582 78.3667 14.128 76.864 15.6909C75.3612 17.2537 74.4596 20.3594 72.8005 21.4734C72.4692 21.7012 72.0855 21.8412 71.6853 21.8804C71.2851 21.9195 70.8816 21.8564 70.5124 21.697C70.1432 21.5377 69.8205 21.2872 69.5745 20.9692C69.3285 20.6511 69.1672 20.2759 69.1058 19.8785V19.8785Z" fill="#088179"/>
<path d="M50.7446 13.6071C53.5498 10.2529 59.0959 9.51158 63.9288 9.13489C63.2716 11.2588 58.7914 13.2705 59.689 16.292C60.5867 19.3135 49.0655 15.6187 50.7446 13.6071Z" fill="#B0EDA8"/>
<path d="M54.4199 28.4502C58.9522 29.1475 67.3075 29.9169 71.0143 23.4731C70.7538 26.9955 70.5053 31.1752 67.7122 32.5296C61.8615 35.3668 55.562 29.4721 54.4199 28.4502Z" fill="black"/>
<defs>
<linearGradient id="paint0_linear_425_2040" x1="55.8501" y1="41.7185" x2="56.7437" y2="85.3342" gradientUnits="userSpaceOnUse">
<stop stop-color="#73C8E1"/>
<stop offset="1" stop-color="#5BC182"/>
</linearGradient>
</defs>
</svg>
