<svg width="120" height="120" viewBox="0 0 120 120" fill="none" xmlns="http://www.w3.org/2000/svg">
<path d="M71.25 66.5625H48.75C47.1964 66.5625 45.9375 65.3036 45.9375 63.75V52.5C45.9375 50.9464 47.1964 49.6875 48.75 49.6875C50.3036 49.6875 51.5625 50.9464 51.5625 52.5V60.9375H71.25C72.8027 60.9375 74.0625 62.1964 74.0625 63.75C74.0625 65.3036 72.8027 66.5625 71.25 66.5625Z" fill="#004E32"/>
<path d="M110.625 113.437H9.3748C8.32834 113.437 7.36889 112.856 6.88366 111.93C6.39843 111.003 6.46709 109.883 7.06218 109.023L23.9372 84.6487C24.4627 83.8907 25.3269 83.4375 26.2498 83.4375H93.7498C94.6727 83.4375 95.5369 83.8907 96.0624 84.6487L112.937 109.023C113.533 109.883 113.602 111.003 113.117 111.93C112.63 112.856 111.67 113.437 110.625 113.437ZM14.7425 107.812H105.256L92.2758 89.0625H27.7238L14.7425 107.812Z" fill="#004E32"/>
<path d="M39.3727 96.5634C38.9497 96.5634 38.5203 96.4672 38.1166 96.2658C36.7277 95.5709 36.1647 93.8818 36.8586 92.492L51.8586 62.492C52.5563 61.1032 54.2445 60.5447 55.6325 61.2341C57.0213 61.929 57.5844 63.6181 56.8904 65.0079L41.8904 95.0079C41.3969 95.993 40.4036 96.5634 39.3727 96.5634Z" fill="#004E32"/>
<path d="M80.6265 96.5634C79.5956 96.5634 78.6014 95.993 78.1088 95.0079L63.1088 65.0079C62.4148 63.6181 62.977 61.929 64.3668 61.2341C65.7602 60.5447 67.4466 61.1032 68.1406 62.492L83.1406 92.492C83.8345 93.8818 83.2724 95.5709 81.8826 96.2658C81.478 96.4672 81.0495 96.5634 80.6265 96.5634Z" fill="#004E32"/>
<path d="M60 104.062C58.4464 104.062 57.1875 102.804 57.1875 101.25V63.749C57.1875 62.1954 58.4464 60.9365 60 60.9365C61.5536 60.9365 62.8125 62.1954 62.8125 63.749V101.25C62.8125 102.804 61.5536 104.062 60 104.062Z" fill="#004E32"/>
<path d="M50.2588 113.437C50.1645 113.437 50.0693 113.433 49.9731 113.423C48.4277 113.267 47.3007 111.888 47.4564 110.343C47.6129 108.797 47.6092 106.75 46.7075 105.782C45.6198 104.615 42.8018 104.699 40.5414 104.765C37.8507 104.842 35.3174 104.918 33.6374 103.239C32.5443 102.147 30.8936 100.495 24.548 102.147C22.1988 102.75 19.4376 103.066 16.5527 103.066C14.9991 103.066 13.7402 101.808 13.7402 100.254C13.7402 98.7002 14.9991 97.4414 16.5527 97.4414C18.9734 97.4414 21.2512 97.185 23.1409 96.7007C31.2689 94.5867 34.9512 96.6741 37.4322 99.082C37.988 99.2138 39.4107 99.169 40.3748 99.1424C43.5864 99.0481 47.9993 98.9163 50.8228 101.948C52.7262 103.99 53.4558 106.921 53.053 110.907C52.9074 112.357 51.6852 113.437 50.2588 113.437Z" fill="#004E32"/>
<path d="M71.7905 113.438C70.7542 113.438 69.7562 112.863 69.2655 111.869C67.3283 107.94 67.9398 105.166 68.7949 103.53C70.1755 100.887 73.1601 99.2038 77.6627 98.5263C79.4297 98.2618 80.9531 98.0695 82.2953 97.9001C89.0775 97.0468 90.2988 96.893 95.8689 90.5173C96.8925 89.35 98.6649 89.2273 99.8386 90.25C101.007 91.2717 101.128 93.0478 100.106 94.2179C93.4244 101.866 90.8591 102.491 82.9984 103.481C81.6929 103.646 80.2134 103.832 78.4977 104.089C75.9818 104.467 74.2625 105.213 73.7791 106.135C73.3012 107.052 73.9072 108.562 74.3119 109.381C74.9985 110.774 74.4254 112.46 73.0338 113.147C72.6328 113.345 72.208 113.438 71.7905 113.438Z" fill="#004E32"/>
<path d="M110.625 77.8125H93.75C92.1973 77.8125 90.9375 76.5536 90.9375 75V9.375C90.9375 7.82136 92.1973 6.5625 93.75 6.5625H110.625C112.178 6.5625 113.438 7.82136 113.438 9.375V75C113.438 76.5536 112.178 77.8125 110.625 77.8125ZM96.5625 72.1875H107.812V12.1875H96.5625V72.1875Z" fill="#004E32"/>
<path d="M99.375 66.5625H93.75C92.1973 66.5625 90.9375 65.3036 90.9375 63.75C90.9375 62.1964 92.1973 60.9375 93.75 60.9375H99.375C100.928 60.9375 102.188 62.1964 102.188 63.75C102.188 65.3036 100.928 66.5625 99.375 66.5625Z" fill="#004E32"/>
<path d="M99.375 55.7812H93.75C92.1973 55.7812 90.9375 54.5224 90.9375 52.9688C90.9375 51.4151 92.1973 50.1562 93.75 50.1562H99.375C100.928 50.1562 102.188 51.4151 102.188 52.9688C102.188 54.5224 100.928 55.7812 99.375 55.7812Z" fill="#004E32"/>
<path d="M99.375 45H93.75C92.1973 45 90.9375 43.7411 90.9375 42.1875C90.9375 40.6339 92.1973 39.375 93.75 39.375H99.375C100.928 39.375 102.188 40.6339 102.188 42.1875C102.188 43.7411 100.928 45 99.375 45Z" fill="#004E32"/>
<path d="M99.375 34.2188H93.75C92.1973 34.2188 90.9375 32.9599 90.9375 31.4062C90.9375 29.8526 92.1973 28.5938 93.75 28.5938H99.375C100.928 28.5938 102.188 29.8526 102.188 31.4062C102.188 32.9599 100.928 34.2188 99.375 34.2188Z" fill="#004E32"/>
<path d="M99.375 23.4375H93.75C92.1973 23.4375 90.9375 22.1786 90.9375 20.625C90.9375 19.0714 92.1973 17.8125 93.75 17.8125H99.375C100.928 17.8125 102.188 19.0714 102.188 20.625C102.188 22.1786 100.928 23.4375 99.375 23.4375Z" fill="#004E32"/>
<path d="M20.528 40.3125C18.338 40.3125 6.5625 33.1824 6.5625 20.528C6.5625 12.8275 12.8275 6.5625 20.528 6.5625C28.2284 6.5625 34.4934 12.8275 34.4934 20.528C34.4934 33.1824 22.7179 40.3125 20.528 40.3125ZM20.528 12.1875C15.9293 12.1875 12.1875 15.9293 12.1875 20.528C12.1875 27.908 17.9855 32.7539 20.528 34.3469C23.0704 32.7539 28.8684 27.908 28.8684 20.528C28.8684 15.9293 25.1266 12.1875 20.528 12.1875Z" fill="#004E32"/>
<path d="M20.5273 24.3169C22.469 24.3169 24.043 22.7429 24.043 20.8013C24.043 18.8596 22.469 17.2856 20.5273 17.2856C18.5857 17.2856 17.0117 18.8596 17.0117 20.8013C17.0117 22.7429 18.5857 24.3169 20.5273 24.3169Z" fill="#004E32"/>
<path d="M31.875 79.6875C30.3214 79.6875 29.0625 78.4286 29.0625 76.875V65.2551L19.0649 58.59C18.2822 58.0682 17.8125 57.1902 17.8125 56.2499V46.874C17.8125 45.3204 19.0714 44.0615 20.625 44.0615C22.1786 44.0615 23.4375 45.3204 23.4375 46.874V54.7448L33.4351 61.4099C34.2178 61.9317 34.6875 62.8097 34.6875 63.7499V76.8749C34.6875 78.4286 33.4286 79.6875 31.875 79.6875Z" fill="#004E32"/>
<path d="M60 40.3125C62.5888 40.3125 64.6875 38.2138 64.6875 35.625C64.6875 33.0362 62.5888 30.9375 60 30.9375C57.4112 30.9375 55.3125 33.0362 55.3125 35.625C55.3125 38.2138 57.4112 40.3125 60 40.3125Z" fill="white"/>
<path d="M78.75 6.5625H41.25C39.6964 6.5625 38.4375 7.82136 38.4375 9.375V52.5C38.4375 54.0536 39.6964 55.3125 41.25 55.3125H78.75C80.3027 55.3125 81.5625 54.0536 81.5625 52.5V9.375C81.5625 7.82136 80.3027 6.5625 78.75 6.5625ZM60 15C62.071 15 63.75 16.6789 63.75 18.75C63.75 20.821 62.071 22.5 60 22.5C57.929 22.5 56.25 20.821 56.25 18.75C56.25 16.6789 57.929 15 60 15ZM60 45.9375C54.3137 45.9375 49.6875 41.3113 49.6875 35.625C49.6875 29.9387 54.3137 25.3125 60 25.3125C65.6854 25.3125 70.3125 29.9387 70.3125 35.625C70.3125 41.3113 65.6854 45.9375 60 45.9375Z" fill="white"/>
</svg>
