<svg width="120" height="120" viewBox="0 0 120 120" fill="none" xmlns="http://www.w3.org/2000/svg">
<path d="M54.3732 102.188H9.375C7.82228 102.188 6.5625 100.929 6.5625 99.375V9.375C6.5625 7.82136 7.82228 6.5625 9.375 6.5625H99.375C100.928 6.5625 102.188 7.82136 102.188 9.375V65.6223C102.188 67.1759 100.928 68.4348 99.375 68.4348C97.8223 68.4348 96.5625 67.1759 96.5625 65.6223V12.1875H12.1875V96.5625H54.3732C55.9259 96.5625 57.1857 97.8214 57.1857 99.375C57.1857 100.929 55.9259 102.188 54.3732 102.188Z" fill="#004B50"/>
<path d="M46.875 102.188C45.3223 102.188 44.0625 100.929 44.0625 99.375V56.25C44.0625 54.6964 45.3223 53.4375 46.875 53.4375C48.4277 53.4375 49.6875 54.6964 49.6875 56.25V99.375C49.6875 100.929 48.4277 102.188 46.875 102.188Z" fill="#004B50"/>
<path d="M46.875 40.3125C45.3223 40.3125 44.0625 39.0536 44.0625 37.5V9.375C44.0625 7.82136 45.3223 6.5625 46.875 6.5625C48.4277 6.5625 49.6875 7.82136 49.6875 9.375V37.5C49.6875 39.0536 48.4277 40.3125 46.875 40.3125Z" fill="#004B50"/>
<path d="M99.375 49.6875H56.25C54.6973 49.6875 53.4375 48.4286 53.4375 46.875C53.4375 45.3214 54.6973 44.0625 56.25 44.0625H99.375C100.928 44.0625 102.188 45.3214 102.188 46.875C102.188 48.4286 100.928 49.6875 99.375 49.6875Z" fill="#004B50"/>
<path d="M37.5 49.6875H9.375C7.82228 49.6875 6.5625 48.4286 6.5625 46.875C6.5625 45.3214 7.82228 44.0625 9.375 44.0625H37.5C39.0527 44.0625 40.3125 45.3214 40.3125 46.875C40.3125 48.4286 39.0527 49.6875 37.5 49.6875Z" fill="#004B50"/>
<path d="M99.3787 49.6875C99.2926 49.6875 99.2066 49.6839 99.1205 49.6756C85.5048 48.4378 83.3899 38.2443 82.1265 32.1533C81.7822 30.4981 81.2073 27.7277 80.6268 27.3404C77.038 24.9472 70.6091 27.952 65.0024 24.2148C59.2291 20.3668 59.0625 10.4883 59.0625 9.37503C59.0625 7.82139 60.3223 6.56253 61.875 6.56253C63.4259 6.56253 64.6857 7.81955 64.6875 9.37046C64.6948 11.4176 65.3394 17.6798 68.1226 19.5346C71.7151 21.9297 78.1457 18.9249 83.747 22.6602C86.2463 24.3265 86.9202 27.5739 87.6343 31.0108C88.8776 37.0102 90.1648 43.2138 99.6295 44.0744C101.177 44.2145 102.317 45.5832 102.177 47.1295C102.043 48.5898 100.816 49.6875 99.3787 49.6875Z" fill="#004B50"/>
<path d="M14.1616 38.4393C12.6088 38.4393 10.9316 38.3597 9.12799 38.2004C7.58074 38.064 6.43633 36.6989 6.57368 35.1517C6.70918 33.6035 8.09528 32.4655 9.62239 32.5973C19.9294 33.5083 22.4947 31.2671 23.0312 30.5585C23.5457 29.881 23.575 28.9252 23.1191 27.7176C22.3134 25.5835 22.167 23.1326 22.026 20.7632C21.874 18.219 21.7019 15.336 20.6124 14.3747C18.9315 12.8888 12.911 12.1912 9.37337 12.1875C7.82065 12.1857 6.56271 10.9259 6.56271 9.37316C6.56455 7.82044 7.82248 6.5625 9.37521 6.5625C11.1935 6.5625 20.4604 6.73554 24.3368 10.1578C27.1785 12.6672 27.4239 16.7899 27.6418 20.4282C27.7572 22.3792 27.878 24.3961 28.3816 25.7309C29.5333 28.7805 29.2238 31.702 27.5118 33.9587C25.2358 36.9598 20.8467 38.4393 14.1616 38.4393Z" fill="#004B50"/>
<path d="M33.752 102.188C32.754 102.188 31.7854 101.654 31.2764 100.714C31.2233 100.615 25.9315 90.8414 23.91 87.8101C21.7952 84.6387 13.8704 83.4448 9.3733 83.4375C7.82057 83.4348 6.56264 82.175 6.56446 80.6223C6.56446 79.0704 7.82239 77.8125 9.37512 77.8125C10.8729 77.8125 24.1334 78.0057 28.5902 84.6899C30.7545 87.9355 36.0023 97.6254 36.2239 98.0365C36.9636 99.4025 36.4546 101.11 35.0886 101.849C34.6638 102.079 34.2042 102.188 33.752 102.188Z" fill="#004B50"/>
<path d="M46.875 66.5625C36.0187 66.5625 27.1875 57.7304 27.1875 46.875C27.1875 36.0196 36.0187 27.1875 46.875 27.1875C57.7313 27.1875 66.5625 36.0196 66.5625 46.875C66.5625 57.7304 57.7313 66.5625 46.875 66.5625ZM46.875 32.8125C39.1205 32.8125 32.8125 39.1205 32.8125 46.875C32.8125 54.6295 39.1205 60.9375 46.875 60.9375C54.6295 60.9375 60.9375 54.6295 60.9375 46.875C60.9375 39.1205 54.6295 32.8125 46.875 32.8125Z" fill="#004B50"/>
<path d="M46.875 66.5625C36.0187 66.5625 27.1875 57.7304 27.1875 46.875C27.1875 36.0196 36.0187 27.1875 46.875 27.1875C57.7313 27.1875 66.5625 36.0196 66.5625 46.875C66.5625 57.7304 57.7313 66.5625 46.875 66.5625ZM46.875 32.8125C39.1205 32.8125 32.8125 39.1205 32.8125 46.875C32.8125 54.6295 39.1205 60.9375 46.875 60.9375C54.6295 60.9375 60.9375 54.6295 60.9375 46.875C60.9375 39.1205 54.6295 32.8125 46.875 32.8125Z" fill="#004B50"/>
<path d="M107.812 56.25H68.4375C66.8839 56.25 65.625 57.5098 65.625 59.0625V109.688C65.625 111.24 66.8839 112.5 68.4375 112.5H107.812C109.366 112.5 110.625 111.24 110.625 109.688V59.0625C110.625 57.5098 109.366 56.25 107.812 56.25ZM75.9375 65.625H83.4375C84.9911 65.625 86.25 66.8848 86.25 68.4375C86.25 69.9902 84.9911 71.25 83.4375 71.25H75.9375C74.3839 71.25 73.125 69.9902 73.125 68.4375C73.125 66.8848 74.3839 65.625 75.9375 65.625ZM100.312 103.125H92.8125C91.2589 103.125 90 101.865 90 100.312C90 98.7598 91.2589 97.5 92.8125 97.5H100.312C101.866 97.5 103.125 98.7598 103.125 100.312C103.125 101.865 101.866 103.125 100.312 103.125ZM100.312 92.4994H75.9375C74.3839 92.4994 73.125 91.2396 73.125 89.6869C73.125 88.1342 74.3839 86.8744 75.9375 86.8744H100.312C101.866 86.8744 103.125 88.1342 103.125 89.6869C103.125 91.2396 101.866 92.4994 100.312 92.4994ZM100.312 81.8756H75.9375C74.3839 81.8756 73.125 80.6158 73.125 79.0631C73.125 77.5104 74.3839 76.2506 75.9375 76.2506H100.312C101.866 76.2506 103.125 77.5104 103.125 79.0631C103.125 80.6158 101.866 81.8756 100.312 81.8756Z" fill="white"/>
</svg>
